<mxfile host="app.diagrams.net" modified="2024-07-11T16:08:41.955Z" agent="Mozilla/5.0 (Windows NT 10.0; Win64; x64; rv:128.0) Gecko/20100101 Firefox/128.0" etag="S5G_zFNpWPFfZaSrIHtw" version="24.6.4" type="device">
  <diagram name="Pagina-1" id="V_HNO9k4999z6F_fTRKg">
    <mxGraphModel dx="1050" dy="1652" grid="1" gridSize="10" guides="1" tooltips="1" connect="1" arrows="1" fold="1" page="1" pageScale="1" pageWidth="827" pageHeight="1169" math="0" shadow="0">
      <root>
        <mxCell id="0" />
        <mxCell id="1" parent="0" />
        <mxCell id="HBmwAiEKgiXEF_s0nJef-27" value="" style="ellipse;shape=startState;fillColor=#FFFFFF;strokeColor=#ff0000;" parent="1" vertex="1">
          <mxGeometry x="473" y="360" width="30" height="30" as="geometry" />
        </mxCell>
        <mxCell id="HBmwAiEKgiXEF_s0nJef-28" value="" style="edgeStyle=elbowEdgeStyle;elbow=horizontal;verticalAlign=bottom;endArrow=classic;endSize=8;strokeColor=#FF0000;endFill=1;rounded=0;entryX=-0.004;entryY=0.529;entryDx=0;entryDy=0;exitX=0.872;exitY=0.492;exitDx=0;exitDy=0;exitPerimeter=0;entryPerimeter=0;" parent="1" source="HBmwAiEKgiXEF_s0nJef-27" target="HBmwAiEKgiXEF_s0nJef-19" edge="1">
          <mxGeometry x="1540" y="160" as="geometry">
            <mxPoint x="200" y="400" as="targetPoint" />
          </mxGeometry>
        </mxCell>
        <mxCell id="HBmwAiEKgiXEF_s0nJef-29" value="Generate Container Microservices" style="text;html=1;align=center;verticalAlign=middle;whiteSpace=wrap;rounded=0;" parent="1" vertex="1">
          <mxGeometry x="430" y="330" width="116" height="30" as="geometry" />
        </mxCell>
        <mxCell id="HBmwAiEKgiXEF_s0nJef-45" value="Api Handler" style="swimlane;whiteSpace=wrap;startSize=40;fillColor=#fff2cc;strokeColor=#d6b656;" parent="1" vertex="1">
          <mxGeometry x="1280" y="120" width="720" height="540" as="geometry" />
        </mxCell>
        <mxCell id="HBmwAiEKgiXEF_s0nJef-46" value="InternalController" style="swimlane;whiteSpace=wrap;html=1;fillColor=#ffda6a;strokeColor=#d6b656;" parent="HBmwAiEKgiXEF_s0nJef-45" vertex="1">
          <mxGeometry y="40" width="240" height="500" as="geometry" />
        </mxCell>
        <mxCell id="HBmwAiEKgiXEF_s0nJef-47" value="interrogate" style="rounded=1;glass=0;shadow=0;" parent="HBmwAiEKgiXEF_s0nJef-46" vertex="1">
          <mxGeometry x="40" y="180" width="160" height="160" as="geometry" />
        </mxCell>
        <mxCell id="HBmwAiEKgiXEF_s0nJef-48" value="assistantOrchestrator" style="swimlane;whiteSpace=wrap;html=1;startSize=23;fillColor=#ffda6a;strokeColor=#d6b656;" parent="HBmwAiEKgiXEF_s0nJef-45" vertex="1">
          <mxGeometry x="240" y="40" width="240" height="200" as="geometry" />
        </mxCell>
        <mxCell id="HBmwAiEKgiXEF_s0nJef-49" value="assistantCreation" style="rounded=1;" parent="HBmwAiEKgiXEF_s0nJef-48" vertex="1">
          <mxGeometry x="40" y="60" width="160" height="100" as="geometry" />
        </mxCell>
        <mxCell id="HBmwAiEKgiXEF_s0nJef-50" value="" style="edgeStyle=orthogonalEdgeStyle;rounded=0;orthogonalLoop=1;jettySize=auto;html=1;startArrow=classic;startFill=1;entryX=0;entryY=0.5;entryDx=0;entryDy=0;strokeColor=#ff0000;" parent="HBmwAiEKgiXEF_s0nJef-45" source="HBmwAiEKgiXEF_s0nJef-47" target="HBmwAiEKgiXEF_s0nJef-49" edge="1">
          <mxGeometry relative="1" as="geometry">
            <Array as="points">
              <mxPoint x="120" y="150" />
            </Array>
          </mxGeometry>
        </mxCell>
        <mxCell id="HBmwAiEKgiXEF_s0nJef-70" value="assistantFactory" style="swimlane;whiteSpace=wrap;html=1;startSize=23;fillColor=#ffda6a;strokeColor=#d6b656;" parent="HBmwAiEKgiXEF_s0nJef-45" vertex="1">
          <mxGeometry x="480" y="40" width="240" height="100" as="geometry" />
        </mxCell>
        <mxCell id="HBmwAiEKgiXEF_s0nJef-71" value="set_assets" style="rounded=1;" parent="HBmwAiEKgiXEF_s0nJef-70" vertex="1">
          <mxGeometry x="40" y="40" width="160" height="40" as="geometry" />
        </mxCell>
        <mxCell id="HBmwAiEKgiXEF_s0nJef-82" value="assistantAPI" style="swimlane;whiteSpace=wrap;html=1;startSize=23;fillColor=#FFDA6A;strokeColor=#d6b656;" parent="HBmwAiEKgiXEF_s0nJef-70" vertex="1">
          <mxGeometry y="100" width="240" height="100" as="geometry" />
        </mxCell>
        <mxCell id="HBmwAiEKgiXEF_s0nJef-83" value="creationHandler" style="rounded=1;" parent="HBmwAiEKgiXEF_s0nJef-82" vertex="1">
          <mxGeometry x="40" y="40" width="160" height="40" as="geometry" />
        </mxCell>
        <mxCell id="HBmwAiEKgiXEF_s0nJef-72" value="" style="edgeStyle=orthogonalEdgeStyle;rounded=0;orthogonalLoop=1;jettySize=auto;html=1;startArrow=classic;startFill=1;entryX=0;entryY=0.5;entryDx=0;entryDy=0;exitX=1.005;exitY=0.291;exitDx=0;exitDy=0;exitPerimeter=0;strokeColor=#ff0000;" parent="HBmwAiEKgiXEF_s0nJef-45" source="HBmwAiEKgiXEF_s0nJef-49" target="HBmwAiEKgiXEF_s0nJef-71" edge="1">
          <mxGeometry relative="1" as="geometry">
            <mxPoint x="450" y="110" as="sourcePoint" />
            <Array as="points">
              <mxPoint x="470" y="129" />
              <mxPoint x="470" y="100" />
            </Array>
          </mxGeometry>
        </mxCell>
        <mxCell id="HBmwAiEKgiXEF_s0nJef-86" value="" style="endArrow=classic;html=1;rounded=0;exitX=1.003;exitY=0.699;exitDx=0;exitDy=0;entryX=0;entryY=0.5;entryDx=0;entryDy=0;startArrow=classic;startFill=1;exitPerimeter=0;strokeColor=#ff0000;" parent="HBmwAiEKgiXEF_s0nJef-45" source="HBmwAiEKgiXEF_s0nJef-49" target="HBmwAiEKgiXEF_s0nJef-83" edge="1">
          <mxGeometry width="50" height="50" relative="1" as="geometry">
            <mxPoint x="470" y="240" as="sourcePoint" />
            <mxPoint x="470" y="280" as="targetPoint" />
            <Array as="points">
              <mxPoint x="470" y="170" />
              <mxPoint x="470" y="200" />
            </Array>
          </mxGeometry>
        </mxCell>
        <mxCell id="HBmwAiEKgiXEF_s0nJef-89" value="threadsAPI" style="swimlane;whiteSpace=wrap;html=1;startSize=23;fillColor=#ffda6a;strokeColor=#d6b656;" parent="HBmwAiEKgiXEF_s0nJef-45" vertex="1">
          <mxGeometry x="240" y="240" width="240" height="100" as="geometry" />
        </mxCell>
        <mxCell id="HBmwAiEKgiXEF_s0nJef-90" value="threadCreationHandler" style="rounded=1;" parent="HBmwAiEKgiXEF_s0nJef-89" vertex="1">
          <mxGeometry x="40" y="40" width="160" height="40" as="geometry" />
        </mxCell>
        <mxCell id="HBmwAiEKgiXEF_s0nJef-97" style="edgeStyle=orthogonalEdgeStyle;rounded=0;orthogonalLoop=1;jettySize=auto;html=1;startArrow=classic;startFill=1;exitX=1;exitY=0.5;exitDx=0;exitDy=0;entryX=0;entryY=0.5;entryDx=0;entryDy=0;strokeColor=#ff0000;" parent="HBmwAiEKgiXEF_s0nJef-45" source="HBmwAiEKgiXEF_s0nJef-47" target="HBmwAiEKgiXEF_s0nJef-90" edge="1">
          <mxGeometry relative="1" as="geometry">
            <mxPoint x="200" y="163" as="sourcePoint" />
            <mxPoint x="280" y="300" as="targetPoint" />
            <Array as="points" />
          </mxGeometry>
        </mxCell>
        <mxCell id="HBmwAiEKgiXEF_s0nJef-98" value="messagesAPI" style="swimlane;whiteSpace=wrap;html=1;startSize=23;fillColor=#ffda6a;strokeColor=#d6b656;" parent="HBmwAiEKgiXEF_s0nJef-45" vertex="1">
          <mxGeometry x="240" y="340" width="240" height="100" as="geometry" />
        </mxCell>
        <mxCell id="HBmwAiEKgiXEF_s0nJef-99" value="messageCreationHandler" style="rounded=1;" parent="HBmwAiEKgiXEF_s0nJef-98" vertex="1">
          <mxGeometry x="40" y="40" width="160" height="40" as="geometry" />
        </mxCell>
        <mxCell id="HBmwAiEKgiXEF_s0nJef-102" value="runsAPI" style="swimlane;whiteSpace=wrap;html=1;startSize=23;fillColor=#ffda6a;strokeColor=#d6b656;" parent="HBmwAiEKgiXEF_s0nJef-45" vertex="1">
          <mxGeometry x="240" y="440" width="240" height="100" as="geometry" />
        </mxCell>
        <mxCell id="HBmwAiEKgiXEF_s0nJef-103" value="runCreationHandler" style="rounded=1;" parent="HBmwAiEKgiXEF_s0nJef-102" vertex="1">
          <mxGeometry x="40" y="40" width="160" height="40" as="geometry" />
        </mxCell>
        <mxCell id="HBmwAiEKgiXEF_s0nJef-106" style="edgeStyle=orthogonalEdgeStyle;rounded=0;orthogonalLoop=1;jettySize=auto;html=1;entryX=0;entryY=0.5;entryDx=0;entryDy=0;startArrow=classic;startFill=1;strokeColor=#ff0000;" parent="HBmwAiEKgiXEF_s0nJef-45" target="HBmwAiEKgiXEF_s0nJef-99" edge="1">
          <mxGeometry relative="1" as="geometry">
            <mxPoint x="201" y="360" as="sourcePoint" />
            <Array as="points">
              <mxPoint x="201" y="360" />
              <mxPoint x="220" y="360" />
              <mxPoint x="220" y="400" />
            </Array>
          </mxGeometry>
        </mxCell>
        <mxCell id="HBmwAiEKgiXEF_s0nJef-107" style="edgeStyle=orthogonalEdgeStyle;rounded=0;orthogonalLoop=1;jettySize=auto;html=1;exitX=0.75;exitY=1;exitDx=0;exitDy=0;entryX=0;entryY=0.5;entryDx=0;entryDy=0;startArrow=classic;startFill=1;strokeColor=#ff0000;" parent="HBmwAiEKgiXEF_s0nJef-45" source="HBmwAiEKgiXEF_s0nJef-47" target="HBmwAiEKgiXEF_s0nJef-103" edge="1">
          <mxGeometry relative="1" as="geometry">
            <Array as="points">
              <mxPoint x="160" y="500" />
            </Array>
          </mxGeometry>
        </mxCell>
        <mxCell id="HBmwAiEKgiXEF_s0nJef-88" style="edgeStyle=orthogonalEdgeStyle;rounded=0;orthogonalLoop=1;jettySize=auto;html=1;startArrow=classic;startFill=1;strokeColor=#ff0000;exitX=1;exitY=0.25;exitDx=0;exitDy=0;" parent="1" source="HBmwAiEKgiXEF_s0nJef-58" target="HBmwAiEKgiXEF_s0nJef-47" edge="1">
          <mxGeometry relative="1" as="geometry">
            <Array as="points">
              <mxPoint x="1100" y="490" />
              <mxPoint x="1100" y="390" />
            </Array>
            <mxPoint x="1040" y="480" as="sourcePoint" />
          </mxGeometry>
        </mxCell>
        <mxCell id="TZCX6PKl8QhE8YGvYeAs-3" value="Container 3" style="edgeLabel;html=1;align=center;verticalAlign=middle;resizable=0;points=[];" parent="HBmwAiEKgiXEF_s0nJef-88" vertex="1" connectable="0">
          <mxGeometry x="0.0429" y="1" relative="1" as="geometry">
            <mxPoint x="47" y="-9" as="offset" />
          </mxGeometry>
        </mxCell>
        <mxCell id="HBmwAiEKgiXEF_s0nJef-114" value="" style="edgeStyle=elbowEdgeStyle;elbow=horizontal;verticalAlign=bottom;endArrow=open;endSize=8;strokeColor=#FF0000;endFill=1;rounded=0;startArrow=open;startFill=0;entryX=0.55;entryY=0.95;entryDx=0;entryDy=0;entryPerimeter=0;" parent="1" target="HBmwAiEKgiXEF_s0nJef-115" edge="1">
          <mxGeometry as="geometry">
            <mxPoint x="1929.999999999999" y="240" as="targetPoint" />
            <mxPoint x="1640" y="120" as="sourcePoint" />
            <Array as="points">
              <mxPoint x="1640" y="80" />
            </Array>
          </mxGeometry>
        </mxCell>
        <mxCell id="HBmwAiEKgiXEF_s0nJef-115" value="OpenAI API" style="ellipse;shape=cloud;whiteSpace=wrap;html=1;fillColor=#f5f5f5;fontColor=#333333;strokeColor=#666666;" parent="1" vertex="1">
          <mxGeometry x="1530" y="-85" width="200" height="130" as="geometry" />
        </mxCell>
        <mxCell id="HBmwAiEKgiXEF_s0nJef-116" value="MongoDB" style="shape=cylinder3;whiteSpace=wrap;html=1;boundedLbl=1;backgroundOutline=1;size=15;fillColor=#e1d5e7;strokeColor=#9673a6;" parent="1" vertex="1">
          <mxGeometry x="771" y="-80" width="120" height="120" as="geometry" />
        </mxCell>
        <mxCell id="HBmwAiEKgiXEF_s0nJef-117" value="" style="edgeStyle=elbowEdgeStyle;elbow=horizontal;verticalAlign=bottom;endArrow=open;endSize=8;strokeColor=#FF0000;endFill=1;rounded=0;entryX=0.5;entryY=1;entryDx=0;entryDy=0;entryPerimeter=0;exitX=0.5;exitY=0;exitDx=0;exitDy=0;startArrow=open;startFill=0;" parent="1" target="HBmwAiEKgiXEF_s0nJef-116" edge="1">
          <mxGeometry x="1540" y="160" as="geometry">
            <mxPoint x="662" y="60" as="targetPoint" />
            <mxPoint x="831" y="120" as="sourcePoint" />
          </mxGeometry>
        </mxCell>
        <mxCell id="trTvAo_gEv-zIW7hR_rP-2" style="edgeStyle=orthogonalEdgeStyle;rounded=0;orthogonalLoop=1;jettySize=auto;html=1;startArrow=classic;startFill=1;strokeColor=#ff0000;exitX=1;exitY=0.5;exitDx=0;exitDy=0;" parent="1" source="HBmwAiEKgiXEF_s0nJef-58" edge="1">
          <mxGeometry relative="1" as="geometry">
            <Array as="points">
              <mxPoint x="1120" y="510" />
              <mxPoint x="1120" y="440" />
            </Array>
            <mxPoint x="1040" y="440" as="sourcePoint" />
            <mxPoint x="1320" y="440" as="targetPoint" />
          </mxGeometry>
        </mxCell>
        <mxCell id="trTvAo_gEv-zIW7hR_rP-3" value="Util 2" style="edgeLabel;html=1;align=center;verticalAlign=middle;resizable=0;points=[];" parent="trTvAo_gEv-zIW7hR_rP-2" vertex="1" connectable="0">
          <mxGeometry x="0.0429" y="1" relative="1" as="geometry">
            <mxPoint x="33" y="-9" as="offset" />
          </mxGeometry>
        </mxCell>
        <mxCell id="RvfL_5_utD2zNhWa0duv-2" style="edgeStyle=orthogonalEdgeStyle;rounded=0;orthogonalLoop=1;jettySize=auto;html=1;startArrow=classic;startFill=1;strokeColor=#ff0000;exitX=1;exitY=0.75;exitDx=0;exitDy=0;entryX=0;entryY=0.75;entryDx=0;entryDy=0;" parent="1" source="HBmwAiEKgiXEF_s0nJef-58" target="HBmwAiEKgiXEF_s0nJef-47" edge="1">
          <mxGeometry relative="1" as="geometry">
            <Array as="points">
              <mxPoint x="1130" y="530" />
              <mxPoint x="1130" y="460" />
            </Array>
            <mxPoint x="1050" y="520" as="sourcePoint" />
            <mxPoint x="1330" y="460" as="targetPoint" />
          </mxGeometry>
        </mxCell>
        <mxCell id="RvfL_5_utD2zNhWa0duv-3" value="Util 3" style="edgeLabel;html=1;align=center;verticalAlign=middle;resizable=0;points=[];" parent="RvfL_5_utD2zNhWa0duv-2" vertex="1" connectable="0">
          <mxGeometry x="0.0429" y="1" relative="1" as="geometry">
            <mxPoint x="33" y="-9" as="offset" />
          </mxGeometry>
        </mxCell>
        <mxCell id="HBmwAiEKgiXEF_s0nJef-17" value="Backend" style="swimlane;whiteSpace=wrap;startSize=40;fillColor=#f8cecc;strokeColor=#b85450;" parent="1" vertex="1">
          <mxGeometry x="591" y="120" width="490" height="570" as="geometry" />
        </mxCell>
        <mxCell id="HBmwAiEKgiXEF_s0nJef-42" value="GenerationController" style="swimlane;whiteSpace=wrap;html=1;fillColor=#f28c84;strokeColor=#b85450;startSize=23;" parent="HBmwAiEKgiXEF_s0nJef-17" vertex="1">
          <mxGeometry y="40" width="240" height="530" as="geometry">
            <mxRectangle y="40" width="150" height="30" as="alternateBounds" />
          </mxGeometry>
        </mxCell>
        <mxCell id="HBmwAiEKgiXEF_s0nJef-19" value="generateSystem" style="rounded=1;glass=0;shadow=0;" parent="HBmwAiEKgiXEF_s0nJef-42" vertex="1">
          <mxGeometry x="29" y="130" width="160" height="160" as="geometry" />
        </mxCell>
        <mxCell id="HBmwAiEKgiXEF_s0nJef-112" style="edgeStyle=orthogonalEdgeStyle;rounded=0;orthogonalLoop=1;jettySize=auto;html=1;strokeColor=#ff0000;entryX=0;entryY=0.5;entryDx=0;entryDy=0;exitX=0.062;exitY=0.976;exitDx=0;exitDy=0;exitPerimeter=0;entryPerimeter=0;" parent="HBmwAiEKgiXEF_s0nJef-42" source="HBmwAiEKgiXEF_s0nJef-19" target="HBmwAiEKgiXEF_s0nJef-109" edge="1">
          <mxGeometry relative="1" as="geometry">
            <mxPoint x="59" y="290" as="sourcePoint" />
            <mxPoint x="278.72" y="102.58000000000001" as="targetPoint" />
            <Array as="points">
              <mxPoint x="39" y="480" />
            </Array>
          </mxGeometry>
        </mxCell>
        <mxCell id="HBmwAiEKgiXEF_s0nJef-119" style="edgeStyle=orthogonalEdgeStyle;rounded=0;orthogonalLoop=1;jettySize=auto;html=1;strokeColor=#ff0000;entryX=0.093;entryY=-0.012;entryDx=0;entryDy=0;entryPerimeter=0;" parent="HBmwAiEKgiXEF_s0nJef-42" target="HBmwAiEKgiXEF_s0nJef-40" edge="1">
          <mxGeometry relative="1" as="geometry">
            <mxPoint x="74" y="290" as="sourcePoint" />
            <mxPoint x="289" y="410" as="targetPoint" />
            <Array as="points">
              <mxPoint x="74" y="290" />
              <mxPoint x="74" y="310" />
            </Array>
          </mxGeometry>
        </mxCell>
        <mxCell id="HBmwAiEKgiXEF_s0nJef-43" value="db_handler" style="swimlane;whiteSpace=wrap;html=1;fillColor=#f28c84;strokeColor=#b85450;rounded=0;" parent="HBmwAiEKgiXEF_s0nJef-42" vertex="1">
          <mxGeometry y="350" width="240" height="180" as="geometry" />
        </mxCell>
        <mxCell id="HBmwAiEKgiXEF_s0nJef-40" value="updateContianer" style="rounded=1;" parent="HBmwAiEKgiXEF_s0nJef-43" vertex="1">
          <mxGeometry x="59" y="55" width="160" height="40" as="geometry" />
        </mxCell>
        <mxCell id="HBmwAiEKgiXEF_s0nJef-109" value="updateContainerStatus" style="rounded=1;" parent="HBmwAiEKgiXEF_s0nJef-43" vertex="1">
          <mxGeometry x="59" y="110" width="160" height="40" as="geometry" />
        </mxCell>
        <mxCell id="HBmwAiEKgiXEF_s0nJef-69" style="edgeStyle=orthogonalEdgeStyle;rounded=0;orthogonalLoop=1;jettySize=auto;html=1;startArrow=classic;startFill=1;strokeColor=#ff0000;" parent="HBmwAiEKgiXEF_s0nJef-42" edge="1">
          <mxGeometry relative="1" as="geometry">
            <mxPoint x="189" y="160" as="sourcePoint" />
            <Array as="points">
              <mxPoint x="219" y="160" />
              <mxPoint x="219" y="330" />
            </Array>
            <mxPoint x="288" y="330" as="targetPoint" />
          </mxGeometry>
        </mxCell>
        <mxCell id="vmtj-mzX9C6tjBd2JJ_i-1" value="content_factory" style="swimlane;whiteSpace=wrap;html=1;fillColor=#f28c84;strokeColor=#b85450;" parent="HBmwAiEKgiXEF_s0nJef-17" vertex="1">
          <mxGeometry x="240" y="40" width="250" height="140" as="geometry" />
        </mxCell>
        <mxCell id="vmtj-mzX9C6tjBd2JJ_i-2" value="getContainerContent" style="rounded=1;" parent="vmtj-mzX9C6tjBd2JJ_i-1" vertex="1">
          <mxGeometry x="45" y="60" width="160" height="40" as="geometry" />
        </mxCell>
        <mxCell id="RvfL_5_utD2zNhWa0duv-7" style="edgeStyle=orthogonalEdgeStyle;rounded=0;orthogonalLoop=1;jettySize=auto;html=1;strokeColor=#ff0000;entryX=0.96;entryY=0.008;entryDx=0;entryDy=0;entryPerimeter=0;startArrow=classic;startFill=1;" parent="vmtj-mzX9C6tjBd2JJ_i-1" edge="1">
          <mxGeometry relative="1" as="geometry">
            <mxPoint x="189" y="100" as="sourcePoint" />
            <mxPoint x="189.60000000000014" y="190.31999999999994" as="targetPoint" />
            <Array as="points" />
          </mxGeometry>
        </mxCell>
        <mxCell id="TZCX6PKl8QhE8YGvYeAs-4" style="edgeStyle=orthogonalEdgeStyle;rounded=0;orthogonalLoop=1;jettySize=auto;html=1;startArrow=none;startFill=0;strokeColor=#ff0000;entryX=0;entryY=0.5;entryDx=0;entryDy=0;exitX=1;exitY=0.5;exitDx=0;exitDy=0;" parent="HBmwAiEKgiXEF_s0nJef-17" source="HBmwAiEKgiXEF_s0nJef-19" target="TZCX6PKl8QhE8YGvYeAs-2" edge="1">
          <mxGeometry relative="1" as="geometry">
            <mxPoint x="189" y="300" as="sourcePoint" />
            <Array as="points">
              <mxPoint x="269" y="250" />
              <mxPoint x="269" y="250" />
            </Array>
            <mxPoint x="108.5" y="430" as="targetPoint" />
          </mxGeometry>
        </mxCell>
        <mxCell id="vmtj-mzX9C6tjBd2JJ_i-7" style="edgeStyle=orthogonalEdgeStyle;rounded=0;orthogonalLoop=1;jettySize=auto;html=1;startArrow=classic;startFill=1;strokeColor=#ff0000;exitX=0.5;exitY=0;exitDx=0;exitDy=0;entryX=0;entryY=0.5;entryDx=0;entryDy=0;" parent="HBmwAiEKgiXEF_s0nJef-17" source="HBmwAiEKgiXEF_s0nJef-19" target="vmtj-mzX9C6tjBd2JJ_i-2" edge="1">
          <mxGeometry relative="1" as="geometry">
            <mxPoint x="189" y="130.05000000000013" as="sourcePoint" />
            <Array as="points">
              <mxPoint x="109" y="120" />
            </Array>
            <mxPoint x="269" y="130" as="targetPoint" />
          </mxGeometry>
        </mxCell>
        <mxCell id="TZCX6PKl8QhE8YGvYeAs-1" value="container_handler" style="swimlane;whiteSpace=wrap;html=1;fillColor=#f28c84;strokeColor=#B85450;startSize=23;" parent="HBmwAiEKgiXEF_s0nJef-17" vertex="1">
          <mxGeometry x="240" y="180" width="250" height="120" as="geometry" />
        </mxCell>
        <mxCell id="TZCX6PKl8QhE8YGvYeAs-2" value="getServicesList" style="rounded=1;" parent="TZCX6PKl8QhE8YGvYeAs-1" vertex="1">
          <mxGeometry x="45" y="50" width="160" height="40" as="geometry" />
        </mxCell>
        <mxCell id="RvfL_5_utD2zNhWa0duv-13" style="edgeStyle=orthogonalEdgeStyle;rounded=0;orthogonalLoop=1;jettySize=auto;html=1;strokeColor=#ff0000;entryX=0.881;entryY=0.004;entryDx=0;entryDy=0;entryPerimeter=0;startArrow=classic;startFill=1;" parent="TZCX6PKl8QhE8YGvYeAs-1" target="HBmwAiEKgiXEF_s0nJef-58" edge="1">
          <mxGeometry relative="1" as="geometry">
            <mxPoint x="189" y="90" as="sourcePoint" />
            <mxPoint x="189.60000000000014" y="180.31999999999994" as="targetPoint" />
            <Array as="points">
              <mxPoint x="189" y="90" />
              <mxPoint x="189" y="170" />
            </Array>
          </mxGeometry>
        </mxCell>
        <mxCell id="HBmwAiEKgiXEF_s0nJef-57" value="api_handler_bridge" style="swimlane;whiteSpace=wrap;html=1;fillColor=#f28c84;strokeColor=#B85450;" parent="HBmwAiEKgiXEF_s0nJef-17" vertex="1">
          <mxGeometry x="240" y="300" width="250" height="160" as="geometry">
            <mxRectangle x="240" y="300" width="140" height="30" as="alternateBounds" />
          </mxGeometry>
        </mxCell>
        <mxCell id="HBmwAiEKgiXEF_s0nJef-58" value="assistant_call" style="rounded=1;" parent="HBmwAiEKgiXEF_s0nJef-57" vertex="1">
          <mxGeometry x="49" y="50" width="160" height="80" as="geometry" />
        </mxCell>
      </root>
    </mxGraphModel>
  </diagram>
</mxfile>
